<svg xmlns="http://www.w3.org/2000/svg" xmlns:xlink="http://www.w3.org/1999/xlink" height="903" version="1.1" viewBox="0 0 940 903" width="940"><ellipse cx="508" cy="34" fill="#ff000000" rx="12" ry="12" stroke="#6482B9" stroke-width="1.0"/><text fill="#774400" font-decoration="none" font-family="Arial,Helvetica" font-size="11" font-weight="normal" text-anchor="middle"><tspan x="509" y="13">START</tspan></text><path d="M 270 402 L 290 422 L 270 442 L 250 422 Z" fill="#ffffffff" stroke="#ff505050" stroke-width="1.0"/><text fill="#774400" font-decoration="none" font-family="Arial,Helvetica" font-size="11" font-weight="normal" text-anchor="middle"><tspan x="269" y="425">C</tspan></text><rect fill="#ffffffff" height="40" rx="12.0" ry="12.0" stroke="#ff505050" stroke-width="1.0" width="80" x="170" y="502"/><text fill="#774400" font-decoration="none" font-family="Arial,Helvetica" font-size="11" font-weight="normal" text-anchor="middle"><tspan x="210" y="525">Edit Test Time</tspan></text><rect fill="#ffffffff" height="40" rx="12.0" ry="12.0" stroke="#ff505050" stroke-width="1.0" width="100" x="280" y="502"/><text fill="#774400" font-decoration="none" font-family="Arial,Helvetica" font-size="11" font-weight="normal" text-anchor="middle"><tspan x="330" y="519">Toggle Test </tspan><tspan x="330" y="530">Open/Close State</tspan></text><rect fill="#ffffffff" height="40" rx="12.0" ry="12.0" stroke="#ff505050" stroke-width="1.0" width="100" x="510" y="502"/><text fill="#774400" font-decoration="none" font-family="Arial,Helvetica" font-size="11" font-weight="normal" text-anchor="middle"><tspan x="559" y="525">Add new question</tspan></text><path d="M 340 199 L 405 219 L 340 239 L 275 219 Z" fill="#ffffffff" stroke="#ff505050" stroke-width="1.0"/><text fill="#774400" font-decoration="none" font-family="Arial,Helvetica" font-size="11" font-weight="normal" text-anchor="middle"><tspan x="340" y="222">At least 1 question</tspan></text><path d="M 440 392 L 530 422 L 440 452 L 350 422 Z" fill="#ffffffff" stroke="#ff505050" stroke-width="1.0"/><text fill="#774400" font-decoration="none" font-family="Arial,Helvetica" font-size="11" font-weight="normal" text-anchor="middle"><tspan x="440" y="425">Is selected desription question</tspan></text><rect fill="#ffffffff" height="40" rx="12.0" ry="12.0" stroke="#ff505050" stroke-width="1.0" width="80" x="0" y="772"/><text fill="#774400" font-decoration="none" font-family="Arial,Helvetica" font-size="11" font-weight="normal" text-anchor="middle"><tspan x="39" y="795">Edit description</tspan></text><path d="M 355 302 L 375 322 L 355 342 L 335 322 Z" fill="#ffffffff" stroke="#ff505050" stroke-width="1.0"/><text fill="#774400" font-decoration="none" font-family="Arial,Helvetica" font-size="11" font-weight="normal" text-anchor="middle"><tspan x="354" y="325">D</tspan></text><rect fill="#ffffffff" height="40" rx="12.0" ry="12.0" stroke="#ff505050" stroke-width="1.0" width="80" x="110" y="772"/><text fill="#774400" font-decoration="none" font-family="Arial,Helvetica" font-size="11" font-weight="normal" text-anchor="middle"><tspan x="149" y="795">Edit points</tspan></text><rect fill="#ffffffff" height="40" rx="12.0" ry="12.0" stroke="#ff505050" stroke-width="1.0" width="110" x="220" y="772"/><text fill="#774400" font-decoration="none" font-family="Arial,Helvetica" font-size="11" font-weight="normal" text-anchor="middle"><tspan x="275" y="789">Upload description </tspan><tspan x="275" y="800">photo</tspan></text><rect fill="#ffffffff" height="40" rx="12.0" ry="12.0" stroke="#ff505050" stroke-width="1.0" width="100" x="360" y="772"/><text fill="#774400" font-decoration="none" font-family="Arial,Helvetica" font-size="11" font-weight="normal" text-anchor="middle"><tspan x="410" y="789">Delete desciption</tspan><tspan x="410" y="800">photo</tspan></text><rect fill="#ffffffff" height="40" rx="12.0" ry="12.0" stroke="#ff505050" stroke-width="1.0" width="80" x="680" y="862"/><text fill="#774400" font-decoration="none" font-family="Arial,Helvetica" font-size="11" font-weight="normal" text-anchor="middle"><tspan x="720" y="885">Add option</tspan></text><path d="M 256 682 L 276 702 L 256 722 L 236 702 Z" fill="#ffffffff" stroke="#ff505050" stroke-width="1.0"/><text fill="#774400" font-decoration="none" font-family="Arial,Helvetica" font-size="11" font-weight="normal" text-anchor="middle"><tspan x="256" y="705">O</tspan></text><rect fill="#ffffffff" height="40" rx="12.0" ry="12.0" stroke="#ff505050" stroke-width="1.0" width="80" x="560" y="772"/><text fill="#774400" font-decoration="none" font-family="Arial,Helvetica" font-size="11" font-weight="normal" text-anchor="middle"><tspan x="600" y="795">Delete option</tspan></text><path d="M 365 592 L 385 612 L 365 632 L 345 612 Z" fill="#ffffffff" stroke="#ff505050" stroke-width="1.0"/><text fill="#774400" font-decoration="none" font-family="Arial,Helvetica" font-size="11" font-weight="normal" text-anchor="middle"><tspan x="365" y="615">At least 1 option</tspan></text><rect fill="#ffffffff" height="40" rx="12.0" ry="12.0" stroke="#ff505050" stroke-width="1.0" width="80" x="670" y="772"/><text fill="#774400" font-decoration="none" font-family="Arial,Helvetica" font-size="11" font-weight="normal" text-anchor="middle"><tspan x="710" y="795">Edit option text</tspan></text><path d="M 510 772 L 530 792 L 510 812 L 490 792 Z" fill="#ffffffff" stroke="#ff505050" stroke-width="1.0"/><text fill="#774400" font-decoration="none" font-family="Arial,Helvetica" font-size="11" font-weight="normal" text-anchor="middle"><tspan x="510" y="795">Q</tspan></text><path d="M 515 682 L 535 702 L 515 722 L 495 702 Z" fill="#ffffffff" stroke="#ff505050" stroke-width="1.0"/><text fill="#774400" font-decoration="none" font-family="Arial,Helvetica" font-size="11" font-weight="normal" text-anchor="middle"><tspan x="514" y="705">R</tspan></text><rect fill="#ffffffff" height="40" rx="12.0" ry="12.0" stroke="#ff505050" stroke-width="1.0" width="120" x="780" y="772"/><text fill="#774400" font-decoration="none" font-family="Arial,Helvetica" font-size="11" font-weight="normal" text-anchor="middle"><tspan x="840" y="795">Toggle option correct</tspan></text><g><ellipse cx="724" cy="231" fill="#ff000000" rx="17" ry="17" stroke="#ffffffff" stroke-width="5.0"/><ellipse cx="724" cy="231" fill="none" rx="9" ry="9" stroke="#ffffffff" stroke-width="5.0"/></g><text fill="#774400" font-decoration="none" font-family="Arial,Helvetica" font-size="11" font-weight="normal" text-anchor="middle"><tspan x="724" y="200">END T</tspan></text><path d="M 460 502 L 480 522 L 460 542 L 440 522 Z" fill="#ffffffff" stroke="#ff505050" stroke-width="1.0"/><text fill="#774400" font-decoration="none" font-family="Arial,Helvetica" font-size="11" font-weight="normal" text-anchor="middle"><tspan x="459" y="525">U</tspan></text><rect fill="#ffffffff" height="40" rx="12.0" ry="12.0" stroke="#ff505050" stroke-width="1.0" width="80" x="437" y="592"/><text fill="#774400" font-decoration="none" font-family="Arial,Helvetica" font-size="11" font-weight="normal" text-anchor="middle"><tspan x="477" y="615">Delete question</tspan></text><path d="M 509 97 L 529 117 L 509 137 L 489 117 Z" fill="#ffffffff" stroke="#ff505050" stroke-width="1.0"/><text fill="#774400" font-decoration="none" font-family="Arial,Helvetica" font-size="11" font-weight="normal" text-anchor="middle"><tspan x="509" y="120">W</tspan></text><g><path d="M 509.0 96.5 L 506.0 90.5 L 509.0 92.0 L 512.0 90.5 z" fill="ff6482b9" stroke="ff6482b9" stroke-width="1.0"/><path d="M 509.0 47.48999599679679 L 509.0 59.41796875 L 509.0 85.41796875 L 509.0 97.0" fill="none" stroke="ff6482b9" stroke-width="1.0"/></g><text fill="#446299" font-decoration="none" font-family="Arial,Helvetica" font-size="11" font-weight="normal" text-anchor="middle"><tspan x="509" y="75">37</tspan></text><g><path d="M 227.5 501.5 L 224.5 495.5 L 227.5 497.0 L 230.5 495.5 z" fill="ff6482b9" stroke="ff6482b9" stroke-width="1.0"/><path d="M 260.0 432.5 L 260.0 464.3359375 L 227.5 490.3359375 L 227.5 502.0" fill="none" stroke="ff6482b9" stroke-width="1.0"/></g><text fill="#446299" font-decoration="none" font-family="Arial,Helvetica" font-size="11" font-weight="normal" text-anchor="middle"><tspan x="251" y="473">1</tspan></text><g><path d="M 307.5 501.5 L 304.5 495.5 L 307.5 497.0 L 310.5 495.5 z" fill="ff6482b9" stroke="ff6482b9" stroke-width="1.0"/><path d="M 270.0 442.5 L 270.0 466.3359375 L 307.5 490.3359375 L 307.5 502.0" fill="none" stroke="ff6482b9" stroke-width="1.0"/></g><text fill="#446299" font-decoration="none" font-family="Arial,Helvetica" font-size="11" font-weight="normal" text-anchor="middle"><tspan x="283" y="478">2</tspan></text><g><path d="M 537.5 501.5 L 534.5 495.5 L 537.5 497.0 L 540.5 495.5 z" fill="ff6482b9" stroke="ff6482b9" stroke-width="1.0"/><path d="M 280.0 432.5 L 280.0 464.3359375 L 537.5 490.3359375 L 537.5 502.0" fill="none" stroke="ff6482b9" stroke-width="1.0"/></g><text fill="#446299" font-decoration="none" font-family="Arial,Helvetica" font-size="11" font-weight="normal" text-anchor="middle"><tspan x="398" y="479">3</tspan></text><g><path d="M 496.1428571428571 124.64285714285711 L 499.1428571428571 130.6428571428571 L 496.1428571428571 129.1428571428571 L 493.1428571428571 130.6428571428571 z" fill="ff6482b9" stroke="ff6482b9" stroke-width="1.0"/><path d="M 192.5 501.5 L 192.5 490.3359375 L 220.0 477.3359375 L 220.0 367.3359375 L 220.0 367.3359375 L 220.0 277.3359375 L 220.0 277.3359375 L 220.0 162.41796875 L 496.1428571428571 153.41796875 L 496.1428571428571 124.14285714285711" fill="none" stroke="ff6482b9" stroke-width="1.0"/></g><text fill="#446299" font-decoration="none" font-family="Arial,Helvetica" font-size="11" font-weight="normal" text-anchor="middle"><tspan x="220" y="191">30</tspan></text><g><path d="M 501.8571428571428 130.35714285714278 L 504.8571428571428 136.35714285714278 L 501.8571428571428 134.85714285714278 L 498.8571428571428 136.35714285714278 z" fill="ff6482b9" stroke="ff6482b9" stroke-width="1.0"/><path d="M 352.5 501.5 L 352.5 490.3359375 L 320.0 477.3359375 L 320.0 367.3359375 L 435.0 367.3359375 L 435.0 277.3359375 L 435.0 277.3359375 L 435.0 162.41796875 L 501.8571428571428 157.41796875 L 501.8571428571428 129.85714285714278" fill="none" stroke="ff6482b9" stroke-width="1.0"/></g><text fill="#446299" font-decoration="none" font-family="Arial,Helvetica" font-size="11" font-weight="normal" text-anchor="middle"><tspan x="435" y="356">29</tspan></text><g><path d="M 504.7142857142856 133.2142857142856 L 507.7142857142856 139.2142857142856 L 504.7142857142856 137.7142857142856 L 501.7142857142856 139.2142857142856 z" fill="ff6482b9" stroke="ff6482b9" stroke-width="1.0"/><path d="M 582.5 501.5 L 582.5 490.3359375 L 560.0 477.3359375 L 560.0 367.3359375 L 465.0 367.3359375 L 465.0 277.3359375 L 465.0 277.3359375 L 465.0 162.41796875 L 504.7142857142856 159.41796875 L 504.7142857142856 132.7142857142856" fill="none" stroke="ff6482b9" stroke-width="1.0"/></g><text fill="#446299" font-decoration="none" font-family="Arial,Helvetica" font-size="11" font-weight="normal" text-anchor="middle"><tspan x="465" y="356">27</tspan></text><g><path d="M 262.5 409.0 L 259.5 403.0 L 262.5 404.5 L 265.5 403.0 z" fill="ff6482b9" stroke="ff6482b9" stroke-width="1.0"/><path d="M 310.0 231.26923076923077 L 310.0 264.3359375 L 305.0 277.3359375 L 305.0 367.3359375 L 262.5 380.3359375 L 262.5 409.5" fill="none" stroke="ff6482b9" stroke-width="1.0"/></g><text fill="#446299" font-decoration="none" font-family="Arial,Helvetica" font-size="11" font-weight="normal" text-anchor="middle"><tspan x="304" y="338">NO QUESTION</tspan></text><g><path d="M 355.0 301.5 L 352.0 295.5 L 355.0 297.0 L 358.0 295.5 z" fill="ff6482b9" stroke="ff6482b9" stroke-width="1.0"/><path d="M 370.0 231.26923076923077 L 370.0 264.3359375 L 355.0 290.3359375 L 355.0 302.0" fill="none" stroke="ff6482b9" stroke-width="1.0"/></g><text fill="#446299" font-decoration="none" font-family="Arial,Helvetica" font-size="11" font-weight="normal" text-anchor="middle"><tspan x="367" y="270">QUESTIONS &gt; 0</tspan></text><g><path d="M 248.5 689.0 L 245.5 683.0 L 248.5 684.5 L 251.5 683.0 z" fill="ff6482b9" stroke="ff6482b9" stroke-width="1.0"/><path d="M 397.5 438.3333333333333 L 397.5 464.3359375 L 410.0 477.3359375 L 410.0 567.3359375 L 293.0 567.3359375 L 293.0 657.3359375 L 248.5 670.3359375 L 248.5 689.5" fill="none" stroke="ff6482b9" stroke-width="1.0"/></g><text fill="#446299" font-decoration="none" font-family="Arial,Helvetica" font-size="11" font-weight="normal" text-anchor="middle"><tspan x="340" y="570">YES</tspan></text><g><path d="M 460.0 501.5 L 457.0 495.5 L 460.0 497.0 L 463.0 495.5 z" fill="ff6482b9" stroke="ff6482b9" stroke-width="1.0"/><path d="M 482.5 438.3333333333333 L 482.5 464.3359375 L 460.0 490.3359375 L 460.0 502.0" fill="none" stroke="ff6482b9" stroke-width="1.0"/></g><text fill="#446299" font-decoration="none" font-family="Arial,Helvetica" font-size="11" font-weight="normal" text-anchor="middle"><tspan x="475" y="474">NO</tspan></text><g><path d="M 490.42857142857144 118.92857142857144 L 493.42857142857144 124.92857142857144 L 490.42857142857144 123.42857142857144 L 487.42857142857144 124.92857142857144 z" fill="ff6482b9" stroke="ff6482b9" stroke-width="1.0"/><path d="M 22.5 771.5 L 22.5 760.3359375 L 110.0 747.3359375 L 110.0 657.3359375 L 110.0 657.3359375 L 110.0 567.3359375 L 110.0 567.3359375 L 110.0 477.3359375 L 110.0 477.3359375 L 110.0 367.3359375 L 110.0 367.3359375 L 110.0 277.3359375 L 110.0 277.3359375 L 110.0 162.41796875 L 490.42857142857144 149.41796875 L 490.42857142857144 118.42857142857144" fill="none" stroke="ff6482b9" stroke-width="1.0"/></g><text fill="#446299" font-decoration="none" font-family="Arial,Helvetica" font-size="11" font-weight="normal" text-anchor="middle"><tspan x="110" y="302">39</tspan></text><g><path d="M 277.5 409.0 L 274.5 403.0 L 277.5 404.5 L 280.5 403.0 z" fill="ff6482b9" stroke="ff6482b9" stroke-width="1.0"/><path d="M 347.5 335.0 L 347.5 354.3359375 L 277.5 380.3359375 L 277.5 409.5" fill="none" stroke="ff6482b9" stroke-width="1.0"/></g><text fill="#446299" font-decoration="none" font-family="Arial,Helvetica" font-size="11" font-weight="normal" text-anchor="middle"><tspan x="308" y="372">6</tspan></text><g><path d="M 440.0 391.5 L 437.0 385.5 L 440.0 387.0 L 443.0 385.5 z" fill="ff6482b9" stroke="ff6482b9" stroke-width="1.0"/><path d="M 362.5 335.0 L 362.5 354.3359375 L 440.0 380.3359375 L 440.0 392.0" fill="none" stroke="ff6482b9" stroke-width="1.0"/></g><text fill="#446299" font-decoration="none" font-family="Arial,Helvetica" font-size="11" font-weight="normal" text-anchor="middle"><tspan x="397" y="369">7</tspan></text><g><path d="M 493.2857142857143 121.78571428571428 L 496.2857142857143 127.78571428571428 L 493.2857142857143 126.28571428571428 L 490.2857142857143 127.78571428571428 z" fill="ff6482b9" stroke="ff6482b9" stroke-width="1.0"/><path d="M 132.5 771.5 L 132.5 760.3359375 L 140.0 747.3359375 L 140.0 657.3359375 L 140.0 657.3359375 L 140.0 567.3359375 L 140.0 567.3359375 L 140.0 477.3359375 L 140.0 477.3359375 L 140.0 367.3359375 L 140.0 367.3359375 L 140.0 277.3359375 L 140.0 277.3359375 L 140.0 162.41796875 L 493.2857142857143 151.41796875 L 493.2857142857143 121.28571428571428" fill="none" stroke="ff6482b9" stroke-width="1.0"/></g><text fill="#446299" font-decoration="none" font-family="Arial,Helvetica" font-size="11" font-weight="normal" text-anchor="middle"><tspan x="140" y="279">38</tspan></text><g><path d="M 510.4285714285713 136.07142857142873 L 513.4285714285713 142.07142857142873 L 510.4285714285713 140.57142857142873 L 507.4285714285713 142.07142857142873 z" fill="ff6482b9" stroke="ff6482b9" stroke-width="1.0"/><path d="M 300.0 771.5 L 300.0 760.3359375 L 435.0 747.3359375 L 435.0 657.3359375 L 670.0 657.3359375 L 670.0 567.3359375 L 670.0 567.3359375 L 670.0 477.3359375 L 670.0 477.3359375 L 670.0 367.3359375 L 525.0 367.3359375 L 525.0 277.3359375 L 525.0 277.3359375 L 525.0 162.41796875 L 510.4285714285713 161.41796875 L 510.4285714285713 135.57142857142873" fill="none" stroke="ff6482b9" stroke-width="1.0"/></g><text fill="#446299" font-decoration="none" font-family="Arial,Helvetica" font-size="11" font-weight="normal" text-anchor="middle"><tspan x="670" y="556">36</tspan></text><g><path d="M 513.2857142857141 133.2142857142859 L 516.2857142857141 139.2142857142859 L 513.2857142857141 137.7142857142859 L 510.2857142857141 139.2142857142859 z" fill="ff6482b9" stroke="ff6482b9" stroke-width="1.0"/><path d="M 432.5 771.5 L 432.5 760.3359375 L 465.0 747.3359375 L 465.0 657.3359375 L 700.0 657.3359375 L 700.0 567.3359375 L 700.0 567.3359375 L 700.0 477.3359375 L 700.0 477.3359375 L 700.0 367.3359375 L 555.0 367.3359375 L 555.0 277.3359375 L 555.0 277.3359375 L 555.0 162.41796875 L 513.2857142857141 159.41796875 L 513.2857142857141 132.7142857142859" fill="none" stroke="ff6482b9" stroke-width="1.0"/></g><text fill="#446299" font-decoration="none" font-family="Arial,Helvetica" font-size="11" font-weight="normal" text-anchor="middle"><tspan x="700" y="492">35</tspan></text><g><path d="M 524.7142857142857 121.78571428571433 L 527.7142857142857 127.78571428571433 L 524.7142857142857 126.28571428571433 L 521.7142857142857 127.78571428571433 z" fill="ff6482b9" stroke="ff6482b9" stroke-width="1.0"/><path d="M 737.5 861.5 L 737.5 850.3359375 L 930.0 837.3359375 L 930.0 747.3359375 L 930.0 747.3359375 L 930.0 657.3359375 L 930.0 657.3359375 L 930.0 567.3359375 L 930.0 567.3359375 L 930.0 477.3359375 L 930.0 477.3359375 L 930.0 367.3359375 L 930.0 367.3359375 L 930.0 277.3359375 L 675.0 277.3359375 L 675.0 162.41796875 L 524.7142857142857 151.41796875 L 524.7142857142857 121.28571428571433" fill="none" stroke="ff6482b9" stroke-width="1.0"/></g><text fill="#446299" font-decoration="none" font-family="Arial,Helvetica" font-size="11" font-weight="normal" text-anchor="middle"><tspan x="930" y="387">34</tspan></text><g><path d="M 57.5 771.5 L 54.5 765.5 L 57.5 767.0 L 60.5 765.5 z" fill="ff6482b9" stroke="ff6482b9" stroke-width="1.0"/><path d="M 244.75 711.25 L 244.75 734.3359375 L 57.5 760.3359375 L 57.5 772.0" fill="none" stroke="ff6482b9" stroke-width="1.0"/></g><text fill="#446299" font-decoration="none" font-family="Arial,Helvetica" font-size="11" font-weight="normal" text-anchor="middle"><tspan x="157" y="749">19</tspan></text><g><path d="M 167.5 771.5 L 164.5 765.5 L 167.5 767.0 L 170.5 765.5 z" fill="ff6482b9" stroke="ff6482b9" stroke-width="1.0"/><path d="M 252.25 718.75 L 252.25 736.3359375 L 167.5 760.3359375 L 167.5 772.0" fill="none" stroke="ff6482b9" stroke-width="1.0"/></g><text fill="#446299" font-decoration="none" font-family="Arial,Helvetica" font-size="11" font-weight="normal" text-anchor="middle"><tspan x="212" y="750">20</tspan></text><g><path d="M 250.0 771.5 L 247.0 765.5 L 250.0 767.0 L 253.0 765.5 z" fill="ff6482b9" stroke="ff6482b9" stroke-width="1.0"/><path d="M 259.75 718.75 L 259.75 736.3359375 L 250.0 760.3359375 L 250.0 772.0" fill="none" stroke="ff6482b9" stroke-width="1.0"/></g><text fill="#446299" font-decoration="none" font-family="Arial,Helvetica" font-size="11" font-weight="normal" text-anchor="middle"><tspan x="256" y="748">21</tspan></text><g><path d="M 387.5 771.5 L 384.5 765.5 L 387.5 767.0 L 390.5 765.5 z" fill="ff6482b9" stroke="ff6482b9" stroke-width="1.0"/><path d="M 267.25 711.25 L 267.25 734.3359375 L 387.5 760.3359375 L 387.5 772.0" fill="none" stroke="ff6482b9" stroke-width="1.0"/></g><text fill="#446299" font-decoration="none" font-family="Arial,Helvetica" font-size="11" font-weight="normal" text-anchor="middle"><tspan x="321" y="749">22</tspan></text><g><path d="M 516.142857142857 130.357142857143 L 519.142857142857 136.357142857143 L 516.142857142857 134.857142857143 L 513.142857142857 136.357142857143 z" fill="ff6482b9" stroke="ff6482b9" stroke-width="1.0"/><path d="M 617.5 771.5 L 617.5 760.3359375 L 730.0 747.3359375 L 730.0 657.3359375 L 730.0 657.3359375 L 730.0 567.3359375 L 730.0 567.3359375 L 730.0 477.3359375 L 730.0 477.3359375 L 730.0 367.3359375 L 585.0 367.3359375 L 585.0 277.3359375 L 585.0 277.3359375 L 585.0 162.41796875 L 516.142857142857 157.41796875 L 516.142857142857 129.857142857143" fill="none" stroke="ff6482b9" stroke-width="1.0"/></g><text fill="#446299" font-decoration="none" font-family="Arial,Helvetica" font-size="11" font-weight="normal" text-anchor="middle"><tspan x="730" y="399">33</tspan></text><g><path d="M 502.5 779.0 L 499.5 773.0 L 502.5 774.5 L 505.5 773.0 z" fill="ff6482b9" stroke="ff6482b9" stroke-width="1.0"/><path d="M 365.0 632.5 L 365.0 646.3359375 L 405.0 657.3359375 L 405.0 747.3359375 L 502.5 760.3359375 L 502.5 779.5" fill="none" stroke="ff6482b9" stroke-width="1.0"/></g><text fill="#446299" font-decoration="none" font-family="Arial,Helvetica" font-size="11" font-weight="normal" text-anchor="middle"><tspan x="405" y="736">NO OPTIONS</tspan></text><g><path d="M 515.0 681.5 L 512.0 675.5 L 515.0 677.0 L 518.0 675.5 z" fill="ff6482b9" stroke="ff6482b9" stroke-width="1.0"/><path d="M 373.95782841925455 623.7429640500299 L 389.6666666666667 644.3359375 L 515.0 670.3359375 L 515.0 682.0" fill="none" stroke="ff6482b9" stroke-width="1.0"/></g><text fill="#446299" font-decoration="none" font-family="Arial,Helvetica" font-size="11" font-weight="normal" text-anchor="middle"><tspan x="445" y="658">OPTIONS &gt; 0</tspan></text><g><path d="M 263.5 689.0 L 260.5 683.0 L 263.5 684.5 L 266.5 683.0 z" fill="ff6482b9" stroke="ff6482b9" stroke-width="1.0"/><path d="M 356.04217158074545 623.7429640500299 L 340.3333333333333 644.3359375 L 263.5 670.3359375 L 263.5 689.5" fill="none" stroke="ff6482b9" stroke-width="1.0"/></g><text fill="#446299" font-decoration="none" font-family="Arial,Helvetica" font-size="11" font-weight="normal" text-anchor="middle"><tspan x="305" y="659">18</tspan></text><g><path d="M 518.9999999999999 127.50000000000011 L 521.9999999999999 133.5000000000001 L 518.9999999999999 132.0000000000001 L 515.9999999999999 133.5000000000001 z" fill="ff6482b9" stroke="ff6482b9" stroke-width="1.0"/><path d="M 727.5 771.5 L 727.5 760.3359375 L 760.0 747.3359375 L 760.0 657.3359375 L 760.0 657.3359375 L 760.0 567.3359375 L 760.0 567.3359375 L 760.0 477.3359375 L 760.0 477.3359375 L 760.0 367.3359375 L 760.0 367.3359375 L 760.0 277.3359375 L 615.0 277.3359375 L 615.0 162.41796875 L 518.9999999999999 155.41796875 L 518.9999999999999 127.00000000000011" fill="none" stroke="ff6482b9" stroke-width="1.0"/></g><text fill="#446299" font-decoration="none" font-family="Arial,Helvetica" font-size="11" font-weight="normal" text-anchor="middle"><tspan x="760" y="346">32</tspan></text><g><path d="M 702.5 861.5 L 699.5 855.5 L 702.5 857.0 L 705.5 855.5 z" fill="ff6482b9" stroke="ff6482b9" stroke-width="1.0"/><path d="M 510.0 812.5 L 510.0 824.3359375 L 702.5 850.3359375 L 702.5 862.0" fill="none" stroke="ff6482b9" stroke-width="1.0"/></g><text fill="#446299" font-decoration="none" font-family="Arial,Helvetica" font-size="11" font-weight="normal" text-anchor="middle"><tspan x="605" y="840">12</tspan></text><g><path d="M 582.5 771.5 L 579.5 765.5 L 582.5 767.0 L 585.5 765.5 z" fill="ff6482b9" stroke="ff6482b9" stroke-width="1.0"/><path d="M 511.25 718.75 L 511.25 736.3359375 L 582.5 760.3359375 L 582.5 772.0" fill="none" stroke="ff6482b9" stroke-width="1.0"/></g><text fill="#446299" font-decoration="none" font-family="Arial,Helvetica" font-size="11" font-weight="normal" text-anchor="middle"><tspan x="543" y="750">14</tspan></text><g><path d="M 692.5 771.5 L 689.5 765.5 L 692.5 767.0 L 695.5 765.5 z" fill="ff6482b9" stroke="ff6482b9" stroke-width="1.0"/><path d="M 518.75 718.75 L 518.75 736.3359375 L 692.5 760.3359375 L 692.5 772.0" fill="none" stroke="ff6482b9" stroke-width="1.0"/></g><text fill="#446299" font-decoration="none" font-family="Arial,Helvetica" font-size="11" font-weight="normal" text-anchor="middle"><tspan x="602" y="750">15</tspan></text><g><path d="M 812.5 771.5 L 809.5 765.5 L 812.5 767.0 L 815.5 765.5 z" fill="ff6482b9" stroke="ff6482b9" stroke-width="1.0"/><path d="M 526.25 711.25 L 526.25 734.3359375 L 812.5 760.3359375 L 812.5 772.0" fill="none" stroke="ff6482b9" stroke-width="1.0"/></g><text fill="#446299" font-decoration="none" font-family="Arial,Helvetica" font-size="11" font-weight="normal" text-anchor="middle"><tspan x="663" y="749">16</tspan></text><g><path d="M 517.5 779.0 L 514.5 773.0 L 517.5 774.5 L 520.5 773.0 z" fill="ff6482b9" stroke="ff6482b9" stroke-width="1.0"/><path d="M 503.75 711.25 L 503.75 734.3359375 L 517.5 760.3359375 L 517.5 779.5" fill="none" stroke="ff6482b9" stroke-width="1.0"/></g><text fill="#446299" font-decoration="none" font-family="Arial,Helvetica" font-size="11" font-weight="normal" text-anchor="middle"><tspan x="509" y="748">17</tspan></text><g><path d="M 521.8571428571428 124.64285714285722 L 524.8571428571428 130.64285714285722 L 521.8571428571428 129.14285714285722 L 518.8571428571428 130.64285714285722 z" fill="ff6482b9" stroke="ff6482b9" stroke-width="1.0"/><path d="M 867.5 771.5 L 867.5 760.3359375 L 790.0 747.3359375 L 790.0 657.3359375 L 790.0 657.3359375 L 790.0 567.3359375 L 790.0 567.3359375 L 790.0 477.3359375 L 790.0 477.3359375 L 790.0 367.3359375 L 790.0 367.3359375 L 790.0 277.3359375 L 645.0 277.3359375 L 645.0 162.41796875 L 521.8571428571428 153.41796875 L 521.8571428571428 124.14285714285722" fill="none" stroke="ff6482b9" stroke-width="1.0"/></g><text fill="#446299" font-decoration="none" font-family="Arial,Helvetica" font-size="11" font-weight="normal" text-anchor="middle"><tspan x="790" y="354">31</tspan></text><g><path d="M 459.5 591.5 L 456.5 585.5 L 459.5 587.0 L 462.5 585.5 z" fill="ff6482b9" stroke="ff6482b9" stroke-width="1.0"/><path d="M 467.5 535.0 L 467.5 554.3359375 L 459.5 580.3359375 L 459.5 592.0" fill="none" stroke="ff6482b9" stroke-width="1.0"/></g><text fill="#446299" font-decoration="none" font-family="Arial,Helvetica" font-size="11" font-weight="normal" text-anchor="middle"><tspan x="464" y="566">23</tspan></text><g><path d="M 365.0 591.5 L 362.0 585.5 L 365.0 587.0 L 368.0 585.5 z" fill="ff6482b9" stroke="ff6482b9" stroke-width="1.0"/><path d="M 452.5 535.0 L 452.5 554.3359375 L 365.0 580.3359375 L 365.0 592.0" fill="none" stroke="ff6482b9" stroke-width="1.0"/></g><text fill="#446299" font-decoration="none" font-family="Arial,Helvetica" font-size="11" font-weight="normal" text-anchor="middle"><tspan x="412" y="569">24</tspan></text><g><path d="M 507.57142857142844 136.07142857142844 L 510.57142857142844 142.07142857142844 L 507.57142857142844 140.57142857142844 L 504.57142857142844 142.07142857142844 z" fill="ff6482b9" stroke="ff6482b9" stroke-width="1.0"/><path d="M 494.5 591.5 L 494.5 580.3359375 L 640.0 567.3359375 L 640.0 477.3359375 L 640.0 477.3359375 L 640.0 367.3359375 L 640.0 367.3359375 L 640.0 277.3359375 L 495.0 277.3359375 L 495.0 162.41796875 L 507.57142857142844 161.41796875 L 507.57142857142844 135.57142857142844" fill="none" stroke="ff6482b9" stroke-width="1.0"/></g><text fill="#446299" font-decoration="none" font-family="Arial,Helvetica" font-size="11" font-weight="normal" text-anchor="middle"><tspan x="640" y="355">28</tspan></text><g><path d="M 725.0 214.5071443154641 L 722.0 208.5071443154641 L 725.0 210.0071443154641 L 728.0 208.5071443154641 z" fill="ff6482b9" stroke="ff6482b9" stroke-width="1.0"/><path d="M 527.5714285714286 118.92857142857144 L 527.5714285714286 149.41796875 L 725.0 175.41796875 L 725.0 215.0071443154641" fill="none" stroke="ff6482b9" stroke-width="1.0"/></g><text fill="#446299" font-decoration="none" font-family="Arial,Helvetica" font-size="11" font-weight="normal" text-anchor="middle"><tspan x="630" y="166">25</tspan></text><g><path d="M 340.0 199.5 L 337.0 193.5 L 340.0 195.0 L 343.0 193.5 z" fill="ff6482b9" stroke="ff6482b9" stroke-width="1.0"/><path d="M 498.99999999999994 127.49999999999994 L 498.99999999999994 155.41796875 L 340.0 175.41796875 L 340.0 200.0" fill="none" stroke="ff6482b9" stroke-width="1.0"/></g><text fill="#446299" font-decoration="none" font-family="Arial,Helvetica" font-size="11" font-weight="normal" text-anchor="middle"><tspan x="421" y="168">26</tspan></text></svg>