<svg xmlns="http://www.w3.org/2000/svg" xmlns:xlink="http://www.w3.org/1999/xlink" height="1003" version="1.1" viewBox="0 0 1153 1003" width="1153"><ellipse cx="636" cy="34" fill="#ff000000" rx="12" ry="12" stroke="#6482B9" stroke-width="1.0"/><text fill="#774400" font-decoration="none" font-family="Arial,Helvetica" font-size="11" font-weight="normal" text-anchor="middle"><tspan x="637" y="13">START</tspan></text><rect fill="#ffffffff" height="40" rx="12.0" ry="12.0" stroke="#ff505050" stroke-width="1.0" width="80" x="597" y="97"/><text fill="#774400" font-decoration="none" font-family="Arial,Helvetica" font-size="11" font-weight="normal" text-anchor="middle"><tspan x="636" y="120">Home</tspan></text><rect fill="#ffffffff" height="40" rx="12.0" ry="12.0" stroke="#ff505050" stroke-width="1.0" width="80" x="491" y="292"/><text fill="#774400" font-decoration="none" font-family="Arial,Helvetica" font-size="11" font-weight="normal" text-anchor="middle"><tspan x="531" y="315">About us</tspan></text><rect fill="#ffffffff" height="40" rx="12.0" ry="12.0" stroke="#ff505050" stroke-width="1.0" width="80" x="311" y="292"/><text fill="#774400" font-decoration="none" font-family="Arial,Helvetica" font-size="11" font-weight="normal" text-anchor="middle"><tspan x="351" y="315">Enter code</tspan></text><rect fill="#ffffffff" height="40" rx="12.0" ry="12.0" stroke="#ff505050" stroke-width="1.0" width="80" x="577" y="577"/><text fill="#774400" font-decoration="none" font-family="Arial,Helvetica" font-size="11" font-weight="normal" text-anchor="middle"><tspan x="617" y="600">Administration</tspan></text><path d="M 791 277 L 841 312 L 791 347 L 741 312 Z" fill="#ffffffff" stroke="#ff505050" stroke-width="1.0"/><text fill="#774400" font-decoration="none" font-family="Arial,Helvetica" font-size="11" font-weight="normal" text-anchor="middle"><tspan x="791" y="315">Is logged in?</tspan></text><rect fill="#ffffffff" height="40" rx="12.0" ry="12.0" stroke="#ff505050" stroke-width="1.0" width="80" x="576" y="397"/><text fill="#774400" font-decoration="none" font-family="Arial,Helvetica" font-size="11" font-weight="normal" text-anchor="middle"><tspan x="615" y="420">LOGIN</tspan></text><rect fill="#ffffffff" height="40" rx="12.0" ry="12.0" stroke="#ff505050" stroke-width="1.0" width="80" x="601" y="292"/><text fill="#774400" font-decoration="none" font-family="Arial,Helvetica" font-size="11" font-weight="normal" text-anchor="middle"><tspan x="640" y="315">Example test</tspan></text><rect fill="#ffffffff" height="40" rx="12.0" ry="12.0" stroke="#ff505050" stroke-width="1.0" width="80" x="526" y="769"/><text fill="#774400" font-decoration="none" font-family="Arial,Helvetica" font-size="11" font-weight="normal" text-anchor="middle"><tspan x="565" y="792">Olympiad year</tspan></text><rect fill="#ffffffff" height="40" rx="12.0" ry="12.0" stroke="#ff505050" stroke-width="1.0" width="80" x="416" y="769"/><text fill="#774400" font-decoration="none" font-family="Arial,Helvetica" font-size="11" font-weight="normal" text-anchor="middle"><tspan x="456" y="792">Results</tspan></text><rect fill="#ffffffff" height="40" rx="12.0" ry="12.0" stroke="#ff505050" stroke-width="1.0" width="80" x="666" y="769"/><text fill="#774400" font-decoration="none" font-family="Arial,Helvetica" font-size="11" font-weight="normal" text-anchor="middle"><tspan x="705" y="792">Tests</tspan></text><rect fill="#ffffffff" height="40" rx="12.0" ry="12.0" stroke="#ff505050" stroke-width="1.0" width="80" x="836" y="769"/><text fill="#774400" font-decoration="none" font-family="Arial,Helvetica" font-size="11" font-weight="normal" text-anchor="middle"><tspan x="875" y="792">Users</tspan></text><rect fill="#ffffffff" height="40" rx="12.0" ry="12.0" stroke="#ff505050" stroke-width="1.0" width="80" x="1006" y="769"/><text fill="#774400" font-decoration="none" font-family="Arial,Helvetica" font-size="11" font-weight="normal" text-anchor="middle"><tspan x="1045" y="792">Posts</tspan></text><rect fill="#ffffffff" height="40" rx="12.0" ry="12.0" stroke="#ff505050" stroke-width="1.0" width="80" x="96" y="769"/><text fill="#774400" font-decoration="none" font-family="Arial,Helvetica" font-size="11" font-weight="normal" text-anchor="middle"><tspan x="136" y="792">Contestants</tspan></text><rect fill="#ffffffff" height="40" rx="12.0" ry="12.0" stroke="#ff505050" stroke-width="1.0" width="80" x="236" y="769"/><text fill="#774400" font-decoration="none" font-family="Arial,Helvetica" font-size="11" font-weight="normal" text-anchor="middle"><tspan x="275" y="792">Evaluations</tspan></text><rect fill="#ffffffff" height="40" rx="12.0" ry="12.0" stroke="#ff505050" stroke-width="1.0" width="80" x="846" y="962"/><text fill="#774400" font-decoration="none" font-family="Arial,Helvetica" font-size="11" font-weight="normal" text-anchor="middle"><tspan x="885" y="985">New post</tspan></text><rect fill="#ffffffff" height="40" rx="12.0" ry="12.0" stroke="#ff505050" stroke-width="1.0" width="80" x="1041" y="962"/><text fill="#774400" font-decoration="none" font-family="Arial,Helvetica" font-size="11" font-weight="normal" text-anchor="middle"><tspan x="1080" y="985">Edit post</tspan></text><rect fill="#ffffffff" height="40" rx="12.0" ry="12.0" stroke="#ff505050" stroke-width="1.0" width="80" x="626" y="962"/><text fill="#774400" font-decoration="none" font-family="Arial,Helvetica" font-size="11" font-weight="normal" text-anchor="middle"><tspan x="666" y="985">New user</tspan></text><rect fill="#ffffffff" height="40" rx="12.0" ry="12.0" stroke="#ff505050" stroke-width="1.0" width="80" x="736" y="962"/><text fill="#774400" font-decoration="none" font-family="Arial,Helvetica" font-size="11" font-weight="normal" text-anchor="middle"><tspan x="776" y="985">Edit user</tspan></text><rect fill="#ffffffff" height="40" rx="12.0" ry="12.0" stroke="#ff505050" stroke-width="1.0" width="80" x="516" y="962"/><text fill="#774400" font-decoration="none" font-family="Arial,Helvetica" font-size="11" font-weight="normal" text-anchor="middle"><tspan x="555" y="979">New olympiad </tspan><tspan x="555" y="990">year</tspan></text><rect fill="#ffffffff" height="40" rx="12.0" ry="12.0" stroke="#ff505050" stroke-width="1.0" width="80" x="356" y="962"/><text fill="#774400" font-decoration="none" font-family="Arial,Helvetica" font-size="11" font-weight="normal" text-anchor="middle"><tspan x="396" y="979">Edit olympiad</tspan><tspan x="396" y="990">year</tspan></text><rect fill="#ffffffff" height="40" rx="12.0" ry="12.0" stroke="#ff505050" stroke-width="1.0" width="110" x="366" y="872"/><text fill="#774400" font-decoration="none" font-family="Arial,Helvetica" font-size="11" font-weight="normal" text-anchor="middle"><tspan x="420" y="895">View Result</tspan></text><rect fill="#ffffffff" height="40" rx="12.0" ry="12.0" stroke="#ff505050" stroke-width="1.0" width="80" x="686" y="872"/><text fill="#774400" font-decoration="none" font-family="Arial,Helvetica" font-size="11" font-weight="normal" text-anchor="middle"><tspan x="726" y="895">Edit test</tspan></text><rect fill="#ffffffff" height="40" rx="12.0" ry="12.0" stroke="#ff505050" stroke-width="1.0" width="110" x="21" y="962"/><text fill="#774400" font-decoration="none" font-family="Arial,Helvetica" font-size="11" font-weight="normal" text-anchor="middle"><tspan x="76" y="985">New Contestant</tspan></text><rect fill="#ffffffff" height="40" rx="12.0" ry="12.0" stroke="#ff505050" stroke-width="1.0" width="120" x="161" y="962"/><text fill="#774400" font-decoration="none" font-family="Arial,Helvetica" font-size="11" font-weight="normal" text-anchor="middle"><tspan x="220" y="985">View Contestant</tspan></text><rect fill="#ffffffff" height="40" rx="12.0" ry="12.0" stroke="#ff505050" stroke-width="1.0" width="80" x="256" y="872"/><text fill="#774400" font-decoration="none" font-family="Arial,Helvetica" font-size="11" font-weight="normal" text-anchor="middle"><tspan x="296" y="889">Evaluate </tspan><tspan x="296" y="900">protocol</tspan></text><rect fill="#ffffffff" height="40" rx="12.0" ry="12.0" stroke="#ff505050" stroke-width="1.0" width="80" x="466" y="397"/><text fill="#774400" font-decoration="none" font-family="Arial,Helvetica" font-size="11" font-weight="normal" text-anchor="middle"><tspan x="505" y="420">Test</tspan></text><path d="M 561 487 L 606 507 L 561 527 L 516 507 Z" fill="#ffffffff" stroke="#ff505050" stroke-width="1.0"/><text fill="#774400" font-decoration="none" font-family="Arial,Helvetica" font-size="11" font-weight="normal" text-anchor="middle"><tspan x="560" y="510">Valid login?</tspan></text><g><ellipse cx="365" cy="801" fill="#ff000000" rx="17" ry="17" stroke="#ffffffff" stroke-width="5.0"/><ellipse cx="365" cy="801" fill="none" rx="9" ry="9" stroke="#ffffffff" stroke-width="5.0"/></g><text fill="#774400" font-decoration="none" font-family="Arial,Helvetica" font-size="11" font-weight="normal" text-anchor="middle"><tspan x="366" y="770">END B</tspan></text><g><ellipse cx="440" cy="324" fill="#ff000000" rx="17" ry="17" stroke="#ffffffff" stroke-width="5.0"/><ellipse cx="440" cy="324" fill="none" rx="9" ry="9" stroke="#ffffffff" stroke-width="5.0"/></g><text fill="#774400" font-decoration="none" font-family="Arial,Helvetica" font-size="11" font-weight="normal" text-anchor="middle"><tspan x="440" y="292">END A</tspan></text><path d="M 116 872 L 166 892 L 116 912 L 66 892 Z" fill="#ffffffff" stroke="#ff505050" stroke-width="1.0"/><text fill="#774400" font-decoration="none" font-family="Arial,Helvetica" font-size="11" font-weight="normal" text-anchor="middle"><tspan x="116" y="895">contestant_table</tspan></text><path d="M 566 872 L 626 892 L 566 912 L 506 892 Z" fill="#ffffffff" stroke="#ff505050" stroke-width="1.0"/><text fill="#774400" font-decoration="none" font-family="Arial,Helvetica" font-size="11" font-weight="normal" text-anchor="middle"><tspan x="565" y="895">olympiad_year_table</tspan></text><path d="M 871 872 L 916 892 L 871 912 L 826 892 Z" fill="#ffffffff" stroke="#ff505050" stroke-width="1.0"/><text fill="#774400" font-decoration="none" font-family="Arial,Helvetica" font-size="11" font-weight="normal" text-anchor="middle"><tspan x="870" y="895">users_table</tspan></text><path d="M 1046 872 L 1086 892 L 1046 912 L 1006 892 Z" fill="#ffffffff" stroke="#ff505050" stroke-width="1.0"/><text fill="#774400" font-decoration="none" font-family="Arial,Helvetica" font-size="11" font-weight="normal" text-anchor="middle"><tspan x="1046" y="895">posts_table</tspan></text><path d="M 548 187 L 588 207 L 548 227 L 508 207 Z" fill="#ffffffff" stroke="#ff505050" stroke-width="1.0"/><text fill="#774400" font-decoration="none" font-family="Arial,Helvetica" font-size="11" font-weight="normal" text-anchor="middle"><tspan x="548" y="210">public_navbar</tspan></text><path d="M 522 667 L 567 687 L 522 707 L 477 687 Z" fill="#ffffffff" stroke="#ff505050" stroke-width="1.0"/><text fill="#774400" font-decoration="none" font-family="Arial,Helvetica" font-size="11" font-weight="normal" text-anchor="middle"><tspan x="522" y="690">admin_navbar</tspan></text><g><path d="M 637.0 96.5 L 634.0 90.5 L 637.0 92.0 L 640.0 90.5 z" fill="ff6482b9" stroke="ff6482b9" stroke-width="1.0"/><path d="M 637.0 47.48999599679679 L 637.0 59.41796875 L 637.0 85.41796875 L 637.0 97.0" fill="none" stroke="ff6482b9" stroke-width="1.0"/></g><text fill="#446299" font-decoration="none" font-family="Arial,Helvetica" font-size="11" font-weight="normal" text-anchor="middle"><tspan x="637" y="75">1</tspan></text><g><path d="M 530.5 195.25 L 527.5 189.25 L 530.5 190.75 L 533.5 189.25 z" fill="ff6482b9" stroke="ff6482b9" stroke-width="1.0"/><path d="M 610.75 137.5 L 610.75 149.41796875 L 530.5 175.41796875 L 530.5 195.75" fill="none" stroke="ff6482b9" stroke-width="1.0"/></g><text fill="#446299" font-decoration="none" font-family="Arial,Helvetica" font-size="11" font-weight="normal" text-anchor="middle"><tspan x="566" y="166">69</tspan></text><g><path d="M 542.1666666666666 224.58333333333331 L 545.1666666666666 230.58333333333331 L 542.1666666666666 229.08333333333331 L 539.1666666666666 230.58333333333331 z" fill="ff6482b9" stroke="ff6482b9" stroke-width="1.0"/><path d="M 513.5 291.5 L 513.5 265.41796875 L 542.1666666666666 243.41796875 L 542.1666666666666 224.08333333333331" fill="none" stroke="ff6482b9" stroke-width="1.0"/></g><text fill="#446299" font-decoration="none" font-family="Arial,Helvetica" font-size="11" font-weight="normal" text-anchor="middle"><tspan x="524" y="259">73</tspan></text><g><path d="M 488.5 396.5 L 485.5 390.5 L 488.5 392.0 L 491.5 390.5 z" fill="ff6482b9" stroke="ff6482b9" stroke-width="1.0"/><path d="M 351.0 332.5 L 351.0 359.41796875 L 488.5 385.41796875 L 488.5 397.0" fill="none" stroke="ff6482b9" stroke-width="1.0"/></g><text fill="#446299" font-decoration="none" font-family="Arial,Helvetica" font-size="11" font-weight="normal" text-anchor="middle"><tspan x="411" y="374">9</tspan></text><g><path d="M 502.0 675.3888888888889 L 499.0 669.3888888888889 L 502.0 670.8888888888889 L 505.0 669.3888888888889 z" fill="ff6482b9" stroke="ff6482b9" stroke-width="1.0"/><path d="M 604.6923076923078 617.5 L 604.6923076923078 637.41796875 L 502.0 655.41796875 L 502.0 675.8888888888889" fill="none" stroke="ff6482b9" stroke-width="1.0"/></g><text fill="#446299" font-decoration="none" font-family="Arial,Helvetica" font-size="11" font-weight="normal" text-anchor="middle"><tspan x="553" y="649">59</tspan></text><g><path d="M 616.0 396.5 L 613.0 390.5 L 616.0 392.0 L 619.0 390.5 z" fill="ff6482b9" stroke="ff6482b9" stroke-width="1.0"/><path d="M 768.5 331.75 L 768.5 359.41796875 L 616.0 385.41796875 L 616.0 397.0" fill="none" stroke="ff6482b9" stroke-width="1.0"/></g><text fill="#446299" font-decoration="none" font-family="Arial,Helvetica" font-size="11" font-weight="normal" text-anchor="middle"><tspan x="699" y="374">NOT LOGGED IN</tspan></text><g><path d="M 634.5 576.5 L 631.5 570.5 L 634.5 572.0 L 637.5 570.5 z" fill="ff6482b9" stroke="ff6482b9" stroke-width="1.0"/><path d="M 813.5 331.75 L 813.5 359.41796875 L 721.0 372.41796875 L 721.0 462.41796875 L 721.0 462.41796875 L 721.0 552.41796875 L 634.5 565.41796875 L 634.5 577.0" fill="none" stroke="ff6482b9" stroke-width="1.0"/></g><text fill="#446299" font-decoration="none" font-family="Arial,Helvetica" font-size="11" font-weight="normal" text-anchor="middle"><tspan x="720" y="454">LOGGED IN</tspan></text><g><path d="M 541.0 495.3888888888889 L 538.0 489.3888888888889 L 541.0 490.8888888888889 L 544.0 489.3888888888889 z" fill="ff6482b9" stroke="ff6482b9" stroke-width="1.0"/><path d="M 598.5 437.5 L 598.5 449.41796875 L 541.0 475.41796875 L 541.0 495.8888888888889" fill="none" stroke="ff6482b9" stroke-width="1.0"/></g><text fill="#446299" font-decoration="none" font-family="Arial,Helvetica" font-size="11" font-weight="normal" text-anchor="middle"><tspan x="566" y="467">66</tspan></text><g><path d="M 645.75 137.5 L 648.75 143.5 L 645.75 142.0 L 642.75 143.5 z" fill="ff6482b9" stroke="ff6482b9" stroke-width="1.0"/><path d="M 658.5 291.5 L 658.5 265.41796875 L 638.0 252.41796875 L 638.0 162.41796875 L 645.75 151.41796875 L 645.75 137.0" fill="none" stroke="ff6482b9" stroke-width="1.0"/></g><text fill="#446299" font-decoration="none" font-family="Arial,Helvetica" font-size="11" font-weight="normal" text-anchor="middle"><tspan x="638" y="221">76</tspan></text><g><path d="M 566.0 871.5 L 563.0 865.5 L 566.0 867.0 L 569.0 865.5 z" fill="ff6482b9" stroke="ff6482b9" stroke-width="1.0"/><path d="M 566.0 810.5 L 566.0 834.3359375 L 566.0 860.3359375 L 566.0 872.0" fill="none" stroke="ff6482b9" stroke-width="1.0"/></g><text fill="#446299" font-decoration="none" font-family="Arial,Helvetica" font-size="11" font-weight="normal" text-anchor="middle"><tspan x="566" y="844">50</tspan></text><g><path d="M 396.0 871.5 L 393.0 865.5 L 396.0 867.0 L 399.0 865.5 z" fill="ff6482b9" stroke="ff6482b9" stroke-width="1.0"/><path d="M 456.0 810.5 L 456.0 834.3359375 L 396.0 860.3359375 L 396.0 872.0" fill="none" stroke="ff6482b9" stroke-width="1.0"/></g><text fill="#446299" font-decoration="none" font-family="Arial,Helvetica" font-size="11" font-weight="normal" text-anchor="middle"><tspan x="431" y="847">25</tspan></text><g><path d="M 708.5 871.5 L 705.5 865.5 L 708.5 867.0 L 711.5 865.5 z" fill="ff6482b9" stroke="ff6482b9" stroke-width="1.0"/><path d="M 706.0 810.5 L 706.0 834.3359375 L 708.5 860.3359375 L 708.5 872.0" fill="none" stroke="ff6482b9" stroke-width="1.0"/></g><text fill="#446299" font-decoration="none" font-family="Arial,Helvetica" font-size="11" font-weight="normal" text-anchor="middle"><tspan x="706" y="844">26</tspan></text><g><path d="M 871.0 871.5 L 868.0 865.5 L 871.0 867.0 L 874.0 865.5 z" fill="ff6482b9" stroke="ff6482b9" stroke-width="1.0"/><path d="M 876.0 810.5 L 876.0 834.3359375 L 871.0 860.3359375 L 871.0 872.0" fill="none" stroke="ff6482b9" stroke-width="1.0"/></g><text fill="#446299" font-decoration="none" font-family="Arial,Helvetica" font-size="11" font-weight="normal" text-anchor="middle"><tspan x="874" y="844">53</tspan></text><g><path d="M 1046.0 871.5 L 1043.0 865.5 L 1046.0 867.0 L 1049.0 865.5 z" fill="ff6482b9" stroke="ff6482b9" stroke-width="1.0"/><path d="M 1046.0 810.5 L 1046.0 834.3359375 L 1046.0 860.3359375 L 1046.0 872.0" fill="none" stroke="ff6482b9" stroke-width="1.0"/></g><text fill="#446299" font-decoration="none" font-family="Arial,Helvetica" font-size="11" font-weight="normal" text-anchor="middle"><tspan x="1046" y="844">56</tspan></text><g><path d="M 116.0 871.5 L 113.0 865.5 L 116.0 867.0 L 119.0 865.5 z" fill="ff6482b9" stroke="ff6482b9" stroke-width="1.0"/><path d="M 136.0 810.5 L 136.0 834.3359375 L 116.0 860.3359375 L 116.0 872.0" fill="none" stroke="ff6482b9" stroke-width="1.0"/></g><text fill="#446299" font-decoration="none" font-family="Arial,Helvetica" font-size="11" font-weight="normal" text-anchor="middle"><tspan x="129" y="845">47</tspan></text><g><path d="M 313.5 871.5 L 310.5 865.5 L 313.5 867.0 L 316.5 865.5 z" fill="ff6482b9" stroke="ff6482b9" stroke-width="1.0"/><path d="M 276.0 810.5 L 276.0 834.3359375 L 313.5 860.3359375 L 313.5 872.0" fill="none" stroke="ff6482b9" stroke-width="1.0"/></g><text fill="#446299" font-decoration="none" font-family="Arial,Helvetica" font-size="11" font-weight="normal" text-anchor="middle"><tspan x="289" y="846">29</tspan></text><g><path d="M 647.7692307692312 617.5 L 650.7692307692312 623.5 L 647.7692307692312 622.0 L 644.7692307692312 623.5 z" fill="ff6482b9" stroke="ff6482b9" stroke-width="1.0"/><path d="M 868.5 961.5 L 868.5 950.3359375 L 976.0 937.3359375 L 976.0 847.3359375 L 1116.0 847.3359375 L 1116.0 732.41796875 L 1116.0 732.41796875 L 1116.0 642.41796875 L 647.7692307692312 633.41796875 L 647.7692307692312 617.0" fill="none" stroke="ff6482b9" stroke-width="1.0"/></g><text fill="#446299" font-decoration="none" font-family="Arial,Helvetica" font-size="11" font-weight="normal" text-anchor="middle"><tspan x="1116" y="680">30</tspan></text><g><path d="M 653.9230769230774 617.5 L 656.9230769230774 623.5 L 653.9230769230774 622.0 L 650.9230769230774 623.5 z" fill="ff6482b9" stroke="ff6482b9" stroke-width="1.0"/><path d="M 1098.5 961.5 L 1098.5 950.3359375 L 1146.0 937.3359375 L 1146.0 847.3359375 L 1146.0 847.3359375 L 1146.0 732.41796875 L 1146.0 732.41796875 L 1146.0 642.41796875 L 653.9230769230774 631.41796875 L 653.9230769230774 617.0" fill="none" stroke="ff6482b9" stroke-width="1.0"/></g><text fill="#446299" font-decoration="none" font-family="Arial,Helvetica" font-size="11" font-weight="normal" text-anchor="middle"><tspan x="1070" y="643">35</tspan></text><g><path d="M 635.4615384615388 617.5 L 638.4615384615388 623.5 L 635.4615384615388 622.0 L 632.4615384615388 623.5 z" fill="ff6482b9" stroke="ff6482b9" stroke-width="1.0"/><path d="M 648.5 961.5 L 648.5 950.3359375 L 796.0 937.3359375 L 796.0 847.3359375 L 946.0 847.3359375 L 946.0 732.41796875 L 946.0 732.41796875 L 946.0 642.41796875 L 635.4615384615388 637.41796875 L 635.4615384615388 617.0" fill="none" stroke="ff6482b9" stroke-width="1.0"/></g><text fill="#446299" font-decoration="none" font-family="Arial,Helvetica" font-size="11" font-weight="normal" text-anchor="middle"><tspan x="946" y="782">38</tspan></text><g><path d="M 641.615384615385 617.5 L 644.615384615385 623.5 L 641.615384615385 622.0 L 638.615384615385 623.5 z" fill="ff6482b9" stroke="ff6482b9" stroke-width="1.0"/><path d="M 793.5 961.5 L 793.5 950.3359375 L 946.0 937.3359375 L 946.0 847.3359375 L 976.0 847.3359375 L 976.0 732.41796875 L 976.0 732.41796875 L 976.0 642.41796875 L 641.615384615385 635.41796875 L 641.615384615385 617.0" fill="none" stroke="ff6482b9" stroke-width="1.0"/></g><text fill="#446299" font-decoration="none" font-family="Arial,Helvetica" font-size="11" font-weight="normal" text-anchor="middle"><tspan x="976" y="713">39</tspan></text><g><path d="M 623.1538461538464 617.5 L 626.1538461538464 623.5 L 623.1538461538464 622.0 L 620.1538461538464 623.5 z" fill="ff6482b9" stroke="ff6482b9" stroke-width="1.0"/><path d="M 573.5 961.5 L 573.5 950.3359375 L 656.0 937.3359375 L 656.0 847.3359375 L 776.0 847.3359375 L 776.0 732.41796875 L 776.0 732.41796875 L 776.0 642.41796875 L 623.1538461538464 641.41796875 L 623.1538461538464 617.0" fill="none" stroke="ff6482b9" stroke-width="1.0"/></g><text fill="#446299" font-decoration="none" font-family="Arial,Helvetica" font-size="11" font-weight="normal" text-anchor="middle"><tspan x="776" y="811">79</tspan></text><g><path d="M 592.3846153846155 617.5 L 595.3846153846155 623.5 L 592.3846153846155 622.0 L 589.3846153846155 623.5 z" fill="ff6482b9" stroke="ff6482b9" stroke-width="1.0"/><path d="M 378.5 961.5 L 378.5 950.3359375 L 226.0 937.3359375 L 226.0 847.3359375 L 66.0 847.3359375 L 66.0 732.41796875 L 66.0 732.41796875 L 66.0 642.41796875 L 592.3846153846155 633.41796875 L 592.3846153846155 617.0" fill="none" stroke="ff6482b9" stroke-width="1.0"/></g><text fill="#446299" font-decoration="none" font-family="Arial,Helvetica" font-size="11" font-weight="normal" text-anchor="middle"><tspan x="66" y="683">41</tspan></text><g><path d="M 617.0000000000002 617.5 L 620.0000000000002 623.5 L 617.0000000000002 622.0 L 614.0000000000002 623.5 z" fill="ff6482b9" stroke="ff6482b9" stroke-width="1.0"/><path d="M 446.0 871.5 L 446.0 860.3359375 L 636.0 847.3359375 L 636.0 732.41796875 L 636.0 732.41796875 L 636.0 642.41796875 L 617.0000000000002 639.41796875 L 617.0000000000002 617.0" fill="none" stroke="ff6482b9" stroke-width="1.0"/></g><text fill="#446299" font-decoration="none" font-family="Arial,Helvetica" font-size="11" font-weight="normal" text-anchor="middle"><tspan x="636" y="828">42</tspan></text><g><path d="M 629.3076923076926 617.5 L 632.3076923076926 623.5 L 629.3076923076926 622.0 L 626.3076923076926 623.5 z" fill="ff6482b9" stroke="ff6482b9" stroke-width="1.0"/><path d="M 743.5 871.5 L 743.5 860.3359375 L 806.0 847.3359375 L 806.0 732.41796875 L 806.0 732.41796875 L 806.0 642.41796875 L 629.3076923076926 639.41796875 L 629.3076923076926 617.0" fill="none" stroke="ff6482b9" stroke-width="1.0"/></g><text fill="#446299" font-decoration="none" font-family="Arial,Helvetica" font-size="11" font-weight="normal" text-anchor="middle"><tspan x="806" y="686">45</tspan></text><g><path d="M 580.0769230769231 617.5 L 583.0769230769231 623.5 L 580.0769230769231 622.0 L 577.0769230769231 623.5 z" fill="ff6482b9" stroke="ff6482b9" stroke-width="1.0"/><path d="M 51.0 961.5 L 51.0 950.3359375 L 6.0 937.3359375 L 6.0 847.3359375 L 6.0 847.3359375 L 6.0 732.41796875 L 6.0 732.41796875 L 6.0 642.41796875 L 580.0769230769231 629.41796875 L 580.0769230769231 617.0" fill="none" stroke="ff6482b9" stroke-width="1.0"/></g><text fill="#446299" font-decoration="none" font-family="Arial,Helvetica" font-size="11" font-weight="normal" text-anchor="middle"><tspan x="122" y="642">46</tspan></text><g><path d="M 586.2307692307693 617.5 L 589.2307692307693 623.5 L 586.2307692307693 622.0 L 583.2307692307693 623.5 z" fill="ff6482b9" stroke="ff6482b9" stroke-width="1.0"/><path d="M 248.5 961.5 L 248.5 950.3359375 L 196.0 937.3359375 L 196.0 847.3359375 L 36.0 847.3359375 L 36.0 732.41796875 L 36.0 732.41796875 L 36.0 642.41796875 L 586.2307692307693 631.41796875 L 586.2307692307693 617.0" fill="none" stroke="ff6482b9" stroke-width="1.0"/></g><text fill="#446299" font-decoration="none" font-family="Arial,Helvetica" font-size="11" font-weight="normal" text-anchor="middle"><tspan x="58" y="645">44</tspan></text><g><path d="M 598.5384615384617 617.5 L 601.5384615384617 623.5 L 598.5384615384617 622.0 L 595.5384615384617 623.5 z" fill="ff6482b9" stroke="ff6482b9" stroke-width="1.0"/><path d="M 278.5 871.5 L 278.5 860.3359375 L 206.0 847.3359375 L 206.0 732.41796875 L 206.0 732.41796875 L 206.0 642.41796875 L 598.5384615384617 635.41796875 L 598.5384615384617 617.0" fill="none" stroke="ff6482b9" stroke-width="1.0"/></g><text fill="#446299" font-decoration="none" font-family="Arial,Helvetica" font-size="11" font-weight="normal" text-anchor="middle"><tspan x="266" y="644">43</tspan></text><g><path d="M 663.25 137.5 L 666.25 143.5 L 663.25 142.0 L 660.25 143.5 z" fill="ff6482b9" stroke="ff6482b9" stroke-width="1.0"/><path d="M 523.5 396.5 L 523.5 385.41796875 L 711.0 372.41796875 L 711.0 252.41796875 L 711.0 252.41796875 L 711.0 162.41796875 L 663.25 151.41796875 L 663.25 137.0" fill="none" stroke="ff6482b9" stroke-width="1.0"/></g><text fill="#446299" font-decoration="none" font-family="Arial,Helvetica" font-size="11" font-weight="normal" text-anchor="middle"><tspan x="711" y="338">77</tspan></text><g><path d="M 599.5 576.5 L 596.5 570.5 L 599.5 572.0 L 602.5 570.5 z" fill="ff6482b9" stroke="ff6482b9" stroke-width="1.0"/><path d="M 561.0 527.5 L 561.0 539.41796875 L 599.5 565.41796875 L 599.5 577.0" fill="none" stroke="ff6482b9" stroke-width="1.0"/></g><text fill="#446299" font-decoration="none" font-family="Arial,Helvetica" font-size="11" font-weight="normal" text-anchor="middle"><tspan x="579" y="555">YES</tspan></text><g><path d="M 633.5 437.5 L 636.5 443.5 L 633.5 442.0 L 630.5 443.5 z" fill="ff6482b9" stroke="ff6482b9" stroke-width="1.0"/><path d="M 581.0 495.3888888888889 L 581.0 475.41796875 L 633.5 449.41796875 L 633.5 437.0" fill="none" stroke="ff6482b9" stroke-width="1.0"/></g><text fill="#446299" font-decoration="none" font-family="Arial,Helvetica" font-size="11" font-weight="normal" text-anchor="middle"><tspan x="603" y="467">NO</tspan></text><g><path d="M 101.0 961.5 L 98.0 955.5 L 101.0 957.0 L 104.0 955.5 z" fill="ff6482b9" stroke="ff6482b9" stroke-width="1.0"/><path d="M 93.5 903.5 L 93.5 924.3359375 L 101.0 950.3359375 L 101.0 962.0" fill="none" stroke="ff6482b9" stroke-width="1.0"/></g><text fill="#446299" font-decoration="none" font-family="Arial,Helvetica" font-size="11" font-weight="normal" text-anchor="middle"><tspan x="95" y="935">48</tspan></text><g><path d="M 193.5 961.5 L 190.5 955.5 L 193.5 957.0 L 196.5 955.5 z" fill="ff6482b9" stroke="ff6482b9" stroke-width="1.0"/><path d="M 138.5 903.5 L 138.5 924.3359375 L 193.5 950.3359375 L 193.5 962.0" fill="none" stroke="ff6482b9" stroke-width="1.0"/></g><text fill="#446299" font-decoration="none" font-family="Arial,Helvetica" font-size="11" font-weight="normal" text-anchor="middle"><tspan x="161" y="938">49</tspan></text><g><path d="M 413.5 961.5 L 410.5 955.5 L 413.5 957.0 L 416.5 955.5 z" fill="ff6482b9" stroke="ff6482b9" stroke-width="1.0"/><path d="M 538.5 903.3333333333334 L 538.5 924.3359375 L 413.5 950.3359375 L 413.5 962.0" fill="none" stroke="ff6482b9" stroke-width="1.0"/></g><text fill="#446299" font-decoration="none" font-family="Arial,Helvetica" font-size="11" font-weight="normal" text-anchor="middle"><tspan x="480" y="939">51</tspan></text><g><path d="M 538.5 961.5 L 535.5 955.5 L 538.5 957.0 L 541.5 955.5 z" fill="ff6482b9" stroke="ff6482b9" stroke-width="1.0"/><path d="M 593.5 903.3333333333334 L 593.5 924.3359375 L 538.5 950.3359375 L 538.5 962.0" fill="none" stroke="ff6482b9" stroke-width="1.0"/></g><text fill="#446299" font-decoration="none" font-family="Arial,Helvetica" font-size="11" font-weight="normal" text-anchor="middle"><tspan x="570" y="938">52</tspan></text><g><path d="M 683.5 961.5 L 680.5 955.5 L 683.5 957.0 L 686.5 955.5 z" fill="ff6482b9" stroke="ff6482b9" stroke-width="1.0"/><path d="M 851.0 903.6111111111111 L 851.0 924.3359375 L 683.5 950.3359375 L 683.5 962.0" fill="none" stroke="ff6482b9" stroke-width="1.0"/></g><text fill="#446299" font-decoration="none" font-family="Arial,Helvetica" font-size="11" font-weight="normal" text-anchor="middle"><tspan x="771" y="939">54</tspan></text><g><path d="M 758.5 961.5 L 755.5 955.5 L 758.5 957.0 L 761.5 955.5 z" fill="ff6482b9" stroke="ff6482b9" stroke-width="1.0"/><path d="M 891.0 903.6111111111111 L 891.0 924.3359375 L 758.5 950.3359375 L 758.5 962.0" fill="none" stroke="ff6482b9" stroke-width="1.0"/></g><text fill="#446299" font-decoration="none" font-family="Arial,Helvetica" font-size="11" font-weight="normal" text-anchor="middle"><tspan x="829" y="939">55</tspan></text><g><path d="M 903.5 961.5 L 900.5 955.5 L 903.5 957.0 L 906.5 955.5 z" fill="ff6482b9" stroke="ff6482b9" stroke-width="1.0"/><path d="M 1028.5 903.75 L 1028.5 924.3359375 L 903.5 950.3359375 L 903.5 962.0" fill="none" stroke="ff6482b9" stroke-width="1.0"/></g><text fill="#446299" font-decoration="none" font-family="Arial,Helvetica" font-size="11" font-weight="normal" text-anchor="middle"><tspan x="970" y="939">57</tspan></text><g><path d="M 1063.5 961.5 L 1060.5 955.5 L 1063.5 957.0 L 1066.5 955.5 z" fill="ff6482b9" stroke="ff6482b9" stroke-width="1.0"/><path d="M 1063.5 903.75 L 1063.5 924.3359375 L 1063.5 950.3359375 L 1063.5 962.0" fill="none" stroke="ff6482b9" stroke-width="1.0"/></g><text fill="#446299" font-decoration="none" font-family="Arial,Helvetica" font-size="11" font-weight="normal" text-anchor="middle"><tspan x="1063" y="935">58</tspan></text><g><path d="M 623.5 291.5 L 620.5 285.5 L 623.5 287.0 L 626.5 285.5 z" fill="ff6482b9" stroke="ff6482b9" stroke-width="1.0"/><path d="M 565.4999999999999 218.75000000000006 L 565.4999999999999 243.41796875 L 623.5 265.41796875 L 623.5 292.0" fill="none" stroke="ff6482b9" stroke-width="1.0"/></g><text fill="#446299" font-decoration="none" font-family="Arial,Helvetica" font-size="11" font-weight="normal" text-anchor="middle"><tspan x="595" y="257">70</tspan></text><g><path d="M 351.0 291.5 L 348.0 285.5 L 351.0 287.0 L 354.0 285.5 z" fill="ff6482b9" stroke="ff6482b9" stroke-width="1.0"/><path d="M 518.8333333333334 212.91666666666669 L 518.8333333333334 239.41796875 L 351.0 265.41796875 L 351.0 292.0" fill="none" stroke="ff6482b9" stroke-width="1.0"/></g><text fill="#446299" font-decoration="none" font-family="Arial,Helvetica" font-size="11" font-weight="normal" text-anchor="middle"><tspan x="435" y="255">71</tspan></text><g><path d="M 548.5 291.5 L 545.5 285.5 L 548.5 287.0 L 551.5 285.5 z" fill="ff6482b9" stroke="ff6482b9" stroke-width="1.0"/><path d="M 553.8333333333333 224.58333333333337 L 553.8333333333333 243.41796875 L 548.5 265.41796875 L 548.5 292.0" fill="none" stroke="ff6482b9" stroke-width="1.0"/></g><text fill="#446299" font-decoration="none" font-family="Arial,Helvetica" font-size="11" font-weight="normal" text-anchor="middle"><tspan x="550" y="261">72</tspan></text><g><path d="M 628.25 137.5 L 631.25 143.5 L 628.25 142.0 L 625.25 143.5 z" fill="ff6482b9" stroke="ff6482b9" stroke-width="1.0"/><path d="M 565.5 195.25 L 565.5 175.41796875 L 628.25 149.41796875 L 628.25 137.0" fill="none" stroke="ff6482b9" stroke-width="1.0"/></g><text fill="#446299" font-decoration="none" font-family="Arial,Helvetica" font-size="11" font-weight="normal" text-anchor="middle"><tspan x="593" y="167">74</tspan></text><g><path d="M 441.0 306.5071443154641 L 438.0 300.5071443154641 L 441.0 302.0071443154641 L 444.0 300.5071443154641 z" fill="ff6482b9" stroke="ff6482b9" stroke-width="1.0"/><path d="M 530.5 218.75 L 530.5 241.41796875 L 441.0 265.41796875 L 441.0 307.0071443154641" fill="none" stroke="ff6482b9" stroke-width="1.0"/></g><text fill="#446299" font-decoration="none" font-family="Arial,Helvetica" font-size="11" font-weight="normal" text-anchor="middle"><tspan x="476" y="258">75</tspan></text><g><path d="M 791.0 276.5 L 788.0 270.5 L 791.0 272.0 L 794.0 270.5 z" fill="ff6482b9" stroke="ff6482b9" stroke-width="1.0"/><path d="M 577.1666666666665 212.91666666666674 L 577.1666666666665 241.41796875 L 791.0 265.41796875 L 791.0 277.0" fill="none" stroke="ff6482b9" stroke-width="1.0"/></g><text fill="#446299" font-decoration="none" font-family="Arial,Helvetica" font-size="11" font-weight="normal" text-anchor="middle"><tspan x="675" y="255">78</tspan></text><g><path d="M 136.0 769.5 L 133.0 763.5 L 136.0 765.0 L 139.0 763.5 z" fill="ff6482b9" stroke="ff6482b9" stroke-width="1.0"/><path d="M 487.0 691.9444444444445 L 487.0 719.41796875 L 136.0 745.41796875 L 136.0 770.0" fill="none" stroke="ff6482b9" stroke-width="1.0"/></g><text fill="#446299" font-decoration="none" font-family="Arial,Helvetica" font-size="11" font-weight="normal" text-anchor="middle"><tspan x="313" y="735">60</tspan></text><g><path d="M 276.0 769.5 L 273.0 763.5 L 276.0 765.0 L 279.0 763.5 z" fill="ff6482b9" stroke="ff6482b9" stroke-width="1.0"/><path d="M 497.0 696.3888888888889 L 497.0 721.41796875 L 276.0 745.41796875 L 276.0 770.0" fill="none" stroke="ff6482b9" stroke-width="1.0"/></g><text fill="#446299" font-decoration="none" font-family="Arial,Helvetica" font-size="11" font-weight="normal" text-anchor="middle"><tspan x="386" y="736">61</tspan></text><g><path d="M 456.0 769.5 L 453.0 763.5 L 456.0 765.0 L 459.0 763.5 z" fill="ff6482b9" stroke="ff6482b9" stroke-width="1.0"/><path d="M 517.0 705.2777777777778 L 517.0 725.41796875 L 456.0 745.41796875 L 456.0 770.0" fill="none" stroke="ff6482b9" stroke-width="1.0"/></g><text fill="#446299" font-decoration="none" font-family="Arial,Helvetica" font-size="11" font-weight="normal" text-anchor="middle"><tspan x="484" y="739">62</tspan></text><g><path d="M 566.0 769.5 L 563.0 763.5 L 566.0 765.0 L 569.0 763.5 z" fill="ff6482b9" stroke="ff6482b9" stroke-width="1.0"/><path d="M 527.0 705.2777777777778 L 527.0 725.41796875 L 566.0 745.41796875 L 566.0 770.0" fill="none" stroke="ff6482b9" stroke-width="1.0"/></g><text fill="#446299" font-decoration="none" font-family="Arial,Helvetica" font-size="11" font-weight="normal" text-anchor="middle"><tspan x="548" y="739">63</tspan></text><g><path d="M 876.0 769.5 L 873.0 763.5 L 876.0 765.0 L 879.0 763.5 z" fill="ff6482b9" stroke="ff6482b9" stroke-width="1.0"/><path d="M 547.0 696.3888888888889 L 547.0 721.41796875 L 876.0 745.41796875 L 876.0 770.0" fill="none" stroke="ff6482b9" stroke-width="1.0"/></g><text fill="#446299" font-decoration="none" font-family="Arial,Helvetica" font-size="11" font-weight="normal" text-anchor="middle"><tspan x="711" y="736">64</tspan></text><g><path d="M 1046.0 769.5 L 1043.0 763.5 L 1046.0 765.0 L 1049.0 763.5 z" fill="ff6482b9" stroke="ff6482b9" stroke-width="1.0"/><path d="M 557.0 691.9444444444445 L 557.0 719.41796875 L 1046.0 745.41796875 L 1046.0 770.0" fill="none" stroke="ff6482b9" stroke-width="1.0"/></g><text fill="#446299" font-decoration="none" font-family="Arial,Helvetica" font-size="11" font-weight="normal" text-anchor="middle"><tspan x="799" y="735">65</tspan></text><g><path d="M 706.0 769.5 L 703.0 763.5 L 706.0 765.0 L 709.0 763.5 z" fill="ff6482b9" stroke="ff6482b9" stroke-width="1.0"/><path d="M 537.0 700.8333333333334 L 537.0 723.41796875 L 706.0 745.41796875 L 706.0 770.0" fill="none" stroke="ff6482b9" stroke-width="1.0"/></g><text fill="#446299" font-decoration="none" font-family="Arial,Helvetica" font-size="11" font-weight="normal" text-anchor="middle"><tspan x="622" y="737">67</tspan></text><g><path d="M 366.0 784.5071443154641 L 363.0 778.5071443154641 L 366.0 780.0071443154641 L 369.0 778.5071443154641 z" fill="ff6482b9" stroke="ff6482b9" stroke-width="1.0"/><path d="M 507.0 700.8333333333334 L 507.0 723.41796875 L 366.0 745.41796875 L 366.0 785.0071443154641" fill="none" stroke="ff6482b9" stroke-width="1.0"/></g><text fill="#446299" font-decoration="none" font-family="Arial,Helvetica" font-size="11" font-weight="normal" text-anchor="middle"><tspan x="428" y="738">68</tspan></text><g><path d="M 610.846153846154 617.5 L 613.846153846154 623.5 L 610.846153846154 622.0 L 607.846153846154 623.5 z" fill="ff6482b9" stroke="ff6482b9" stroke-width="1.0"/><path d="M 542.0 675.3888888888889 L 542.0 655.41796875 L 610.846153846154 637.41796875 L 610.846153846154 617.0" fill="none" stroke="ff6482b9" stroke-width="1.0"/></g><text fill="#446299" font-decoration="none" font-family="Arial,Helvetica" font-size="11" font-weight="normal" text-anchor="middle"><tspan x="576" y="649">40</tspan></text></svg>